<svg xmlns="http://www.w3.org/2000/svg" width="300" height="300" fill="none" viewBox="0 0 300 300"><g clip-path="url(#a)"><path fill="#fff" d="M0 0h300v300H0z"/><g clip-path="url(#b)"><path fill="#F0E" d="M0 0h300v300H0z"/><g filter="url(#c)"><path fill="#fff" d="M243 68h-59.838l-35.358 163.995h59.836z"/><path fill="url(#d)" fill-opacity=".1" d="M243 68h-59.838l-35.358 163.995h59.836z"/><path fill="#fff" d="M140.691 68.003H80.853L61 160.25h29.479L75.143 232l93.097-94.812h-42.484z"/><path fill="url(#e)" fill-opacity=".1" d="M140.691 68.003H80.853L61 160.25h29.479L75.143 232l93.097-94.812h-42.484z"/><path stroke="#fff" stroke-linejoin="round" stroke-opacity=".6" d="M125.756 137.688h41.292l-91.056 92.734 14.976-70.068a.5.5 0 0 0-.49-.604H61.62l19.638-91.247h58.814l-14.804 68.579a.5.5 0 0 0 .489.606Zm57.81-69.188h58.815l-35.145 162.995h-58.813z"/></g></g></g><defs><linearGradient id="d" x1="152" x2="152" y1="68" y2="232" gradientUnits="userSpaceOnUse"><stop offset=".33" stop-color="#F0E" stop-opacity="0"/><stop offset="1" stop-color="#F0E"/></linearGradient><linearGradient id="e" x1="152" x2="152" y1="68" y2="232" gradientUnits="userSpaceOnUse"><stop offset=".33" stop-color="#F0E" stop-opacity="0"/><stop offset="1" stop-color="#F0E"/></linearGradient><clipPath id="a"><path fill="#fff" d="M0 0h300v300H0z"/></clipPath><clipPath id="b"><path fill="#fff" d="M0 0h300v300H0z"/></clipPath><filter id="c" width="262" height="311" x="21" y="60" color-interpolation-filters="sRGB" filterUnits="userSpaceOnUse"><feFlood flood-opacity="0" result="BackgroundImageFix"/><feColorMatrix in="SourceAlpha" result="hardAlpha" values="0 0 0 0 0 0 0 0 0 0 0 0 0 0 0 0 0 0 127 0"/><feOffset dy="6"/><feGaussianBlur stdDeviation="7"/><feColorMatrix values="0 0 0 0 0.4 0 0 0 0 0 0 0 0 0 0.372549 0 0 0 0.15 0"/><feBlend in2="BackgroundImageFix" result="effect1_dropShadow_290_44"/><feColorMatrix in="SourceAlpha" result="hardAlpha" values="0 0 0 0 0 0 0 0 0 0 0 0 0 0 0 0 0 0 127 0"/><feOffset dy="25"/><feGaussianBlur stdDeviation="12.5"/><feColorMatrix values="0 0 0 0 0.4 0 0 0 0 0 0 0 0 0 0.372549 0 0 0 0.13 0"/><feBlend in2="effect1_dropShadow_290_44" result="effect2_dropShadow_290_44"/><feColorMatrix in="SourceAlpha" result="hardAlpha" values="0 0 0 0 0 0 0 0 0 0 0 0 0 0 0 0 0 0 127 0"/><feOffset dy="56"/><feGaussianBlur stdDeviation="17"/><feColorMatrix values="0 0 0 0 0.4 0 0 0 0 0 0 0 0 0 0.372549 0 0 0 0.08 0"/><feBlend in2="effect2_dropShadow_290_44" result="effect3_dropShadow_290_44"/><feColorMatrix in="SourceAlpha" result="hardAlpha" values="0 0 0 0 0 0 0 0 0 0 0 0 0 0 0 0 0 0 127 0"/><feOffset dy="99"/><feGaussianBlur stdDeviation="20"/><feColorMatrix values="0 0 0 0 0.4 0 0 0 0 0 0 0 0 0 0.372549 0 0 0 0.02 0"/><feBlend in2="effect3_dropShadow_290_44" result="effect4_dropShadow_290_44"/><feBlend in="SourceGraphic" in2="effect4_dropShadow_290_44" result="shape"/><feColorMatrix in="SourceAlpha" result="hardAlpha" values="0 0 0 0 0 0 0 0 0 0 0 0 0 0 0 0 0 0 127 0"/><feOffset/><feGaussianBlur stdDeviation="12"/><feComposite in2="hardAlpha" k2="-1" k3="1" operator="arithmetic"/><feColorMatrix values="0 0 0 0 1 0 0 0 0 0 0 0 0 0 0.933333 0 0 0 0.2 0"/><feBlend in2="shape" result="effect5_innerShadow_290_44"/></filter></defs></svg>